PathFileType	4	(X/Y/Z)	C:/Users/beibeiliu/ov580/test_trc\sequence.27_training_dense_right.trc
DataRate	CameraRate	NumFrames	NumMarkers	Units	OrigDataRate	OrigDataStartFrame	OrigNumFrames
120	120	8	19	mm	120	1	331
Frame#	Time	ThumbCMC			ThumbMCP			ThumbIP			ThumbTip			IndexMCP			IndexPIP			IndexTip			MiddleMCP			MiddlePIP			MiddleTip			RingMCP			RingPIP			RingTip			PinkyMCP			PinkyPIP			PinkyTip			BackHand1			BackHand2			BackHand3	
		X0	Y0	Z0	X1	Y1	Z1	X2	Y2	Z2	X3	Y3	Z3	X4	Y4	Z4	X5	Y5	Z5	X6	Y6	Z6	X7	Y7	Z7	X8	Y8	Z8	X9	Y9	Z9	X10	Y10	Z10	X11	Y11	Z11	X12	Y12	Z12	X13	Y13	Z13	X14	Y14	Z14	X15	Y15	Z15	X16	Y16	Z16	X17	Y17	Z17	X18	Y18	Z18	
0	0	175.493	-17.1689	52.6305	154.876	-23.3164	30.8374	147.472	-25.171	7.93393	140.407	-27.1429	-9.399	183.172	-8.07995	-15.0156	180.247	-13.5247	-40.3269	174.515	-15.3221	-58.5862	206.963	-12.5703	-20.6719	202.952	-15.3941	-43.4013	206.901	-19.0577	-68.7314	222.801	-19.9371	-14.1871	224.76	-22.1598	-36.2508	229.484	-23.392	-57.0615	238.687	-28.2258	-0.667784	246.158	-30.2686	-16.3587	255.138	-28.3893	-28.9405	222.087	-9.65973	29.7207	221.641	-4.19904	56.8152	197.496	0.214593	43.1269	
1	0.00833333	174.733	-16.9842	47.6815	160.355	-25.0084	31.6661	150.764	-25.7641	6.33655	139.349	-29.1523	-7.61094	184.322	-9.42769	-14.84	179.52	-12.2815	-39.9703	179.197	-18.033	-62.1228	204.593	-12.5503	-19.5085	203.626	-16.2122	-47.4203	207.761	-19.3283	-70.7853	222.241	-19.5452	-16.258	230.297	-23.9489	-32.7422	229.718	-24.0907	-56.7451	239.069	-29.0497	0.292295	248.209	-30.7245	-17.2991	253.781	-28.691	-34.1784	222.788	-10.9769	29.9528	222.727	-6.09248	56.4599	198.136	0.595533	40.003	
2	0.0166667	174.286	-17.4191	52.67	161.714	-24.8651	28.9027	150.371	-25.9469	6.91527	143.533	-28.3619	-9.40558	185.919	-9.34735	-15.3579	180.131	-11.589	-36.3869	181.2	-17.0551	-59.1671	205.814	-13.2562	-24.6969	204.559	-16.4563	-46.9578	209.335	-20.4714	-72.0692	226.211	-20.3174	-14.4249	227.753	-22.9513	-33.0053	231.665	-25.2846	-55.4949	240.866	-27.7183	-0.730006	248.441	-31.6602	-14.8645	254.353	-29.0637	-30.282	224.705	-11.0356	28.8566	226.788	-5.9411	53.6661	201.247	0.581929	41.3537	
3	0.025	174.093	-16.7086	49.6477	159.489	-24.7155	31.6043	151.483	-25.7039	5.69286	141.291	-28.991	-9.8175	184.478	-8.78141	-13.7045	180.896	-12.6388	-40.6447	183.013	-17.3261	-60.868	210.367	-14.0986	-22.6509	209.043	-18.0614	-47.9292	212.074	-22.0566	-70.0842	225.85	-18.8144	-16.1796	230.599	-22.411	-36.9464	231.381	-25.2519	-56.4783	241.069	-27.9211	0.389724	247.271	-31.2124	-13.4878	257.593	-29.2111	-33.5937	222.937	-8.73985	28.5901	225.597	-7.60465	56.2224	198.012	0.284164	37.6468	
4	0.0333333	173.817	-15.8924	48.5386	161.239	-24.6542	30.8138	151.342	-25.7143	7.55086	142.463	-28.9832	-10.219	186.597	-9.28899	-17.4172	181.277	-11.6434	-37.4991	183.482	-17.8894	-59.8639	206.233	-12.9531	-19.4256	207.092	-18.4246	-47.6826	209.326	-20.4172	-68.495	225.1	-20.4236	-11.3731	228.346	-22.4897	-37.7467	232.649	-24.4229	-57.8215	242.221	-29.4555	3.10934	249.696	-30.4724	-17.8182	257.696	-30.4651	-34.2196	223.932	-10.1281	31.7524	229.313	-6.53693	55.9967	203.816	-1.19992	41.4106	
5	0.0416667	175.227	-17.0612	47.4003	163.898	-25.4918	30.0166	154.011	-27.7137	11.3321	144.279	-29.528	-6.88685	183.978	-9.89155	-15.8548	185.534	-13.7972	-39.8553	177.735	-16.6722	-62.8971	209.117	-14.1231	-19.7721	210.045	-18.0052	-44.357	209.062	-20.5285	-67.0569	225.065	-20.3155	-15.2421	231.573	-23.2565	-34.2816	230.448	-25.1929	-54.1668	244.921	-30.0401	-0.310704	247.463	-30.7591	-15.0703	260.45	-29.3849	-34.3727	228.529	-12.4617	28.7391	227.041	-7.7772	52.9548	204.056	-1.77342	37.3174	
6	0.05	177.819	-18.2655	48.3588	160.587	-24.5222	31.5383	149.758	-25.9315	8.84281	140.868	-29.5456	-6.12566	185.582	-10.4428	-16.082	180.66	-12.9633	-40.046	183.195	-18.1092	-61.4278	206.781	-13.4402	-21.035	207.834	-18.1472	-44.4214	209.927	-21.3966	-68.949	229.351	-21.1232	-14.6871	232.65	-24.0813	-34.3974	234.028	-25.8735	-53.7832	241.957	-29.8848	1.67327	251.918	-33.1041	-16.2221	260.523	-30.3981	-34.6545	225.606	-10.5988	31.5289	225.108	-7.60399	55.2708	202.065	-2.06106	38.1073	
7	0.0583333	176.449	-18.9086	52.4633	161.001	-24.8652	31.0754	151.201	-26.7064	9.67613	141.452	-28.9423	-8.32274	183.895	-9.95968	-16.6337	183.853	-15.3206	-41.8439	181.136	-18.4059	-64.1675	209.012	-15.2722	-22.7823	208.525	-18.9892	-46.1499	213.544	-22.723	-73.0782	229.963	-22.8019	-15.451	233.888	-25.3118	-35.6686	231.585	-25.4994	-54.0802	242.36	-30.0535	2.96316	248.312	-32.3637	-13.6378	260.721	-29.5745	-30.9099	225.255	-9.70292	26.9887	225.999	-6.96523	56.8907	199.994	-1.02803	40.8883	
